<svg width="29" height="32" viewBox="0 0 29 32" fill="none" xmlns="http://www.w3.org/2000/svg">
<path fill-rule="evenodd" clip-rule="evenodd" d="M18.9826 5.19499C20.0339 3.84779 20.8309 1.94366 20.5427 0C18.8244 0.118539 16.8159 1.20986 15.644 2.63232C14.5757 3.9212 13.6977 5.83851 14.0406 7.69938C15.9191 7.75771 17.8578 6.64003 18.9826 5.19499ZM28.2674 23.4781C27.5157 25.1415 27.1539 25.8847 26.1855 27.358C24.8346 29.4145 22.9298 31.9753 20.5671 31.9941C18.4701 32.0167 17.9294 30.63 15.0825 30.6469C12.2357 30.662 11.6422 32.0205 9.54143 31.9998C7.18067 31.9791 5.37571 29.6685 4.02481 27.6119C0.245325 21.8656 -0.152219 15.1202 2.1784 11.5321C3.8364 8.98447 6.45153 7.49426 8.90838 7.49426C11.4086 7.49426 12.9818 8.86405 15.0524 8.86405C17.0608 8.86405 18.2836 7.49052 21.1757 7.49052C23.365 7.49052 25.6843 8.68154 27.3348 10.7362C21.9237 13.6978 22.7998 21.4141 28.2674 23.4781Z" fill="#A3A3A3"/>
</svg>
