<svg width="48" height="49" viewBox="0 0 48 49" fill="none" xmlns="http://www.w3.org/2000/svg">
<path d="M33.5 7.34998V4.22998C33.5 3.40998 32.82 2.72998 32 2.72998C31.18 2.72998 30.5 3.40998 30.5 4.22998V7.22998H17.5V4.22998C17.5 3.40998 16.82 2.72998 16 2.72998C15.18 2.72998 14.5 3.40998 14.5 4.22998V7.34998C9.1 7.84998 6.48 11.07 6.08 15.85C6.04 16.43 6.52 16.91 7.08 16.91H40.92C41.5 16.91 41.98 16.41 41.92 15.85C41.52 11.07 38.9 7.84998 33.5 7.34998Z" fill="#2C4154"/>
<path d="M40 19.91H8C6.9 19.91 6 20.81 6 21.91V34.23C6 40.23 9 44.23 16 44.23H32C39 44.23 42 40.23 42 34.23V21.91C42 20.81 41.1 19.91 40 19.91ZM18.42 36.65C18.32 36.73 18.22 36.83 18.12 36.89C18 36.97 17.88 37.03 17.76 37.07C17.64 37.13 17.52 37.17 17.4 37.19C17.26 37.21 17.14 37.23 17 37.23C16.74 37.23 16.48 37.17 16.24 37.07C15.98 36.97 15.78 36.83 15.58 36.65C15.22 36.27 15 35.75 15 35.23C15 34.71 15.22 34.19 15.58 33.81C15.78 33.63 15.98 33.49 16.24 33.39C16.6 33.23 17 33.19 17.4 33.27C17.52 33.29 17.64 33.33 17.76 33.39C17.88 33.43 18 33.49 18.12 33.57C18.22 33.65 18.32 33.73 18.42 33.81C18.78 34.19 19 34.71 19 35.23C19 35.75 18.78 36.27 18.42 36.65ZM18.42 29.65C18.04 30.01 17.52 30.23 17 30.23C16.48 30.23 15.96 30.01 15.58 29.65C15.22 29.27 15 28.75 15 28.23C15 27.71 15.22 27.19 15.58 26.81C16.14 26.25 17.02 26.07 17.76 26.39C18.02 26.49 18.24 26.63 18.42 26.81C18.78 27.19 19 27.71 19 28.23C19 28.75 18.78 29.27 18.42 29.65ZM25.42 36.65C25.04 37.01 24.52 37.23 24 37.23C23.48 37.23 22.96 37.01 22.58 36.65C22.22 36.27 22 35.75 22 35.23C22 34.71 22.22 34.19 22.58 33.81C23.32 33.07 24.68 33.07 25.42 33.81C25.78 34.19 26 34.71 26 35.23C26 35.75 25.78 36.27 25.42 36.65ZM25.42 29.65C25.32 29.73 25.22 29.81 25.12 29.89C25 29.97 24.88 30.03 24.76 30.07C24.64 30.13 24.52 30.17 24.4 30.19C24.26 30.21 24.14 30.23 24 30.23C23.48 30.23 22.96 30.01 22.58 29.65C22.22 29.27 22 28.75 22 28.23C22 27.71 22.22 27.19 22.58 26.81C22.76 26.63 22.98 26.49 23.24 26.39C23.98 26.07 24.86 26.25 25.42 26.81C25.78 27.19 26 27.71 26 28.23C26 28.75 25.78 29.27 25.42 29.65ZM32.42 36.65C32.04 37.01 31.52 37.23 31 37.23C30.48 37.23 29.96 37.01 29.58 36.65C29.22 36.27 29 35.75 29 35.23C29 34.71 29.22 34.19 29.58 33.81C30.32 33.07 31.68 33.07 32.42 33.81C32.78 34.19 33 34.71 33 35.23C33 35.75 32.78 36.27 32.42 36.65ZM32.42 29.65C32.32 29.73 32.22 29.81 32.12 29.89C32 29.97 31.88 30.03 31.76 30.07C31.64 30.13 31.52 30.17 31.4 30.19C31.26 30.21 31.12 30.23 31 30.23C30.48 30.23 29.96 30.01 29.58 29.65C29.22 29.27 29 28.75 29 28.23C29 27.71 29.22 27.19 29.58 26.81C29.78 26.63 29.98 26.49 30.24 26.39C30.6 26.23 31 26.19 31.4 26.27C31.52 26.29 31.64 26.33 31.76 26.39C31.88 26.43 32 26.49 32.12 26.57C32.22 26.65 32.32 26.73 32.42 26.81C32.78 27.19 33 27.71 33 28.23C33 28.75 32.78 29.27 32.42 29.65Z" fill="#2C4154"/>
</svg>
