<svg width="27" height="24" viewBox="0 0 27 24" fill="none" xmlns="http://www.w3.org/2000/svg">
<path d="M24.4687 8.169C24.4687 8.56168 24.0862 8.88733 23.625 8.88733H3.375C2.91375 8.88733 2.53125 8.56168 2.53125 8.169C2.53125 7.77631 2.91375 7.45067 3.375 7.45067H4.5225L4.95 5.71711C5.355 4.04101 6.19875 2.499 9.55125 2.499H17.4487C20.8012 2.499 21.645 4.04101 22.05 5.71711L22.4775 7.45067H23.625C24.0862 7.45067 24.4687 7.77631 24.4687 8.169Z" fill="#2C4154"/>
<path d="M24.9521 13.59C24.7833 12.0096 24.2883 10.324 20.677 10.324H6.32205C2.7108 10.324 2.22705 12.0096 2.04705 13.59L1.41705 19.4228C1.3383 20.1507 1.61955 20.8786 2.20455 21.4245C2.8008 21.98 3.64455 22.2961 4.54455 22.2961H6.65955C8.48205 22.2961 8.8308 21.4054 9.0558 20.8211L9.2808 20.2465C9.53955 19.5856 9.60705 19.4228 10.6195 19.4228H16.3796C17.3921 19.4228 17.4258 19.5185 17.7183 20.2465L17.9433 20.8211C18.1683 21.4054 18.5171 22.2961 20.3396 22.2961H22.4545C23.3433 22.2961 24.1983 21.98 24.7946 21.4245C25.3796 20.8786 25.6608 20.1507 25.5821 19.4228L24.9521 13.59ZM10.1245 15.5917H6.74955C6.2883 15.5917 5.9058 15.2661 5.9058 14.8734C5.9058 14.4807 6.2883 14.155 6.74955 14.155H10.1245C10.5858 14.155 10.9683 14.4807 10.9683 14.8734C10.9683 15.2661 10.5858 15.5917 10.1245 15.5917ZM20.2496 15.5917H16.8746C16.4133 15.5917 16.0308 15.2661 16.0308 14.8734C16.0308 14.4807 16.4133 14.155 16.8746 14.155H20.2496C20.7108 14.155 21.0933 14.4807 21.0933 14.8734C21.0933 15.2661 20.7108 15.5917 20.2496 15.5917Z" fill="#2C4154"/>
</svg>
