<svg width="48" height="49" viewBox="0 0 48 49" fill="none" xmlns="http://www.w3.org/2000/svg">
<path d="M43.5 16.2301C43.5 17.0501 42.82 17.7301 42 17.7301H6C5.18 17.7301 4.5 17.0501 4.5 16.2301C4.5 15.4101 5.18 14.7301 6 14.7301H8.04L8.8 11.1101C9.52 7.61014 11.02 4.39014 16.98 4.39014H31.02C36.98 4.39014 38.48 7.61014 39.2 11.1101L39.96 14.7301H42C42.82 14.7301 43.5 15.4101 43.5 16.2301Z" fill="#2C4154"/>
<path d="M44.3592 27.55C44.0592 24.25 43.1792 20.73 36.7592 20.73H11.2392C4.8192 20.73 3.9592 24.25 3.6392 27.55L2.5192 39.73C2.3792 41.25 2.8792 42.77 3.9192 43.91C4.9792 45.07 6.4792 45.73 8.0792 45.73H11.8392C15.0792 45.73 15.6992 43.87 16.0992 42.65L16.4992 41.45C16.9592 40.07 17.0792 39.73 18.8792 39.73H29.1192C30.9192 39.73 30.9792 39.93 31.4992 41.45L31.8992 42.65C32.2992 43.87 32.9192 45.73 36.1592 45.73H39.9192C41.4992 45.73 43.0192 45.07 44.0792 43.91C45.1192 42.77 45.6192 41.25 45.4792 39.73L44.3592 27.55ZM17.9992 31.73H11.9992C11.1792 31.73 10.4992 31.05 10.4992 30.23C10.4992 29.41 11.1792 28.73 11.9992 28.73H17.9992C18.8192 28.73 19.4992 29.41 19.4992 30.23C19.4992 31.05 18.8192 31.73 17.9992 31.73ZM35.9992 31.73H29.9992C29.1792 31.73 28.4992 31.05 28.4992 30.23C28.4992 29.41 29.1792 28.73 29.9992 28.73H35.9992C36.8192 28.73 37.4992 29.41 37.4992 30.23C37.4992 31.05 36.8192 31.73 35.9992 31.73Z" fill="#2C4154"/>
</svg>
