<svg width="33" height="32" viewBox="0 0 33 32" fill="none" xmlns="http://www.w3.org/2000/svg">
<g clip-path="url(#clip0_212_1291)">
<path fill-rule="evenodd" clip-rule="evenodd" d="M0.732544 16C0.732544 7.16347 7.89601 0 16.7325 0C25.5691 0 32.7325 7.16347 32.7325 16C32.7325 24.8365 25.5691 32 16.7325 32C7.89601 32 0.732544 24.8365 0.732544 16ZM16.7095 11.7475C18.0095 11.7475 18.8865 12.3099 19.3865 12.7799L21.3404 10.8693C20.1403 9.75227 18.5787 9.06667 16.7095 9.06667C14.0017 9.06667 11.6631 10.6228 10.5246 12.8877C10.0553 13.8275 9.78614 14.8829 9.78614 16C9.78614 17.1171 10.0553 18.1725 10.5246 19.1123L12.7709 17.3713L10.5323 19.1123C11.6708 21.3772 14.0017 22.9333 16.7095 22.9333C18.5787 22.9333 20.148 22.3171 21.2942 21.2539C22.6019 20.0445 23.3559 18.2649 23.3559 16.1541C23.3559 15.584 23.3097 15.168 23.2097 14.7366H16.7095V17.3096H20.525C20.4481 17.9491 20.0327 18.912 19.1095 19.5591C18.5249 19.9674 17.7403 20.2525 16.7095 20.2525C14.8786 20.2525 13.3247 19.0429 12.7709 17.3713C12.6247 16.9399 12.5401 16.4776 12.5401 16C12.5401 15.5224 12.6247 15.0601 12.7631 14.6287C13.3247 12.9571 14.8786 11.7475 16.7095 11.7475Z" fill="#A3A3A3"/>
</g>
<defs>
<clipPath id="clip0_212_1291">
<rect width="32" height="32" fill="white" transform="translate(0.732544)"/>
</clipPath>
</defs>
</svg>
