<svg width="32" height="32" viewBox="0 0 32 32" fill="none" xmlns="http://www.w3.org/2000/svg">
<path fill-rule="evenodd" clip-rule="evenodd" d="M6.47619 11.4286H6.22478C6.65723 9.57926 7.60916 7.87623 8.9876 6.53066C10.8435 4.719 13.3286 3.69593 15.922 3.6758C18.5155 3.65567 21.0161 4.64006 22.8999 6.4227C24.3373 7.78291 25.3305 9.52732 25.7751 11.4286H25.5238C24.051 11.4286 22.8571 12.6225 22.8571 14.0952V22.4762C22.8571 23.949 24.051 25.1429 25.5238 25.1429H29.3333C30.806 25.1429 32 23.949 32 22.4762V14.0952C32 12.6865 30.9075 11.5328 29.5236 11.4353C29.031 8.51208 27.6007 5.81074 25.4262 3.75303C22.8527 1.31772 19.4365 -0.0270819 15.8935 0.000413458C12.3505 0.0279088 8.95559 1.42556 6.42018 3.90052C4.32918 5.94166 2.95659 8.5849 2.47628 11.4353C1.09238 11.5329 0 12.6865 0 14.0952V22.4762C0 23.8664 1.06373 25.0081 2.42164 25.1318C2.52432 25.5552 2.68473 25.9694 2.90124 26.3661C3.40325 27.2857 4.18888 28.078 5.17806 28.6622C6.16724 29.2464 7.3246 29.6016 8.53218 29.6916C8.80062 29.7116 9.06941 29.7183 9.33719 29.712C9.80722 31.0448 11.0778 32 12.5715 32H14.8572C16.7507 32 18.2858 30.465 18.2858 28.5714C18.2858 26.6779 16.7507 25.1429 14.8572 25.1429H12.5715C11.2848 25.1429 10.1636 25.8517 9.57714 26.9001C9.33048 26.9258 9.08023 26.9296 8.83057 26.911C8.21295 26.865 7.62101 26.6833 7.11509 26.3845C6.60917 26.0857 6.20735 25.6805 5.9506 25.2101C5.93842 25.1878 5.92658 25.1654 5.91509 25.1429H6.47619C7.94895 25.1429 9.14286 23.949 9.14286 22.4762V14.0952C9.14286 12.6225 7.94895 11.4286 6.47619 11.4286ZM10.762 12.5714C10.762 12.2032 11.0605 11.9047 11.4287 11.9047H20.5716C20.9398 11.9047 21.2382 12.2032 21.2382 12.5714C21.2382 12.9396 20.9398 13.2381 20.5716 13.2381H11.4287C11.0605 13.2381 10.762 12.9396 10.762 12.5714ZM13.7142 15.3333C13.346 15.3333 13.0475 15.6318 13.0475 16C13.0475 16.3682 13.346 16.6667 13.7142 16.6667H18.2856C18.6538 16.6667 18.9523 16.3682 18.9523 16C18.9523 15.6318 18.6538 15.3333 18.2856 15.3333H13.7142Z" fill="#2C4154"/>
</svg>
