<svg width="36" height="42" viewBox="0 0 36 42" fill="none" xmlns="http://www.w3.org/2000/svg">
<path d="M35.24 14.13C33.16 4.86998 25.08 0.72998 18 0.72998C18 0.72998 18 0.72998 17.98 0.72998C10.92 0.72998 2.85999 4.86998 0.759989 14.11C-1.60001 24.43 4.71999 33.17 10.44 38.69C12.56 40.73 15.28 41.75 18 41.75C20.72 41.75 23.44 40.73 25.54 38.69C31.26 33.17 37.58 24.45 35.24 14.13ZM24.56 15.79L16.56 23.79C16.26 24.09 15.88 24.23 15.5 24.23C15.12 24.23 14.74 24.09 14.44 23.79L11.44 20.79C10.86 20.21 10.86 19.25 11.44 18.67C12.02 18.09 12.98 18.09 13.56 18.67L15.5 20.61L22.44 13.67C23.02 13.09 23.98 13.09 24.56 13.67C25.14 14.25 25.14 15.21 24.56 15.79Z" fill="#2C4154"/>
</svg>
