<svg width="48" height="48" viewBox="0 0 48 48" fill="none" xmlns="http://www.w3.org/2000/svg">
<path fill-rule="evenodd" clip-rule="evenodd" d="M25.3441 7.1407C31.9329 7.1407 37.6854 10.5298 40.7661 15.5695L47.2954 11.9974C42.9103 4.82499 34.7237 0 25.3441 0C20.2679 0 15.5447 1.41125 11.5795 3.8431L18.826 8.3056C20.8439 7.55246 23.0401 7.1407 25.3441 7.1407ZM15.8866 24.0017L8.42834 6.12711L20.2048 13.3839L37.4403 24.0017L20.2048 34.616L8.42834 41.8729L15.8866 24.0017ZM18.8261 39.6944C20.8439 40.4476 23.0439 40.8593 25.3442 40.8593C31.9329 40.8593 37.6855 37.4702 40.7662 32.4305L47.2955 36.0027C42.9141 43.175 34.7237 48 25.3442 48C20.2717 48 15.5447 46.5888 11.5833 44.1569L18.8261 39.6944ZM9.03023 30.7624L5.57422 39.0187C2.08847 34.9081 0 29.6855 0 24.0018C0 18.3145 2.08847 13.0919 5.57422 8.98129L9.03023 17.2376L11.8619 23.9982L9.03023 30.7624Z" fill="#222B45"/>
</svg>
