<svg width="24" height="25" viewBox="0 0 24 25" fill="none" xmlns="http://www.w3.org/2000/svg">
<path d="M11.94 2.70995L9.53 8.31995H7.12C6.72 8.31995 6.33 8.34995 5.95 8.42995L6.95 6.02995L6.99 5.93995L7.05 5.77995C7.08 5.70995 7.1 5.64995 7.13 5.59995C8.29 2.90995 9.59 2.06995 11.94 2.70995Z" fill="#2C4154"/>
<path d="M18.73 8.59002L18.71 8.58002C18.11 8.41002 17.5 8.32002 16.88 8.32002H10.62L12.87 3.09002L12.9 3.02002C13.04 3.07002 13.19 3.14002 13.34 3.19002L15.55 4.12002C16.78 4.63002 17.64 5.16002 18.17 5.80002C18.26 5.92002 18.34 6.03002 18.42 6.16002C18.51 6.30002 18.58 6.44002 18.62 6.59002C18.66 6.68002 18.69 6.76002 18.71 6.85002C18.86 7.36002 18.87 7.94002 18.73 8.59002Z" fill="#2C4154"/>
<path d="M12.52 18.16H12.77C13.07 18.16 13.32 17.89 13.32 17.56C13.32 17.14 13.2 17.08 12.94 16.98L12.52 16.83V18.16Z" fill="#2C4154"/>
<path d="M18.29 10.0199C17.84 9.88995 17.37 9.81995 16.88 9.81995H7.12C6.44 9.81995 5.8 9.94995 5.2 10.2099C3.46 10.9599 2.24 12.6899 2.24 14.6999V16.6499C2.24 16.8899 2.26 17.1199 2.29 17.3599C2.51 20.5399 4.21 22.2399 7.39 22.4499C7.62 22.4799 7.85 22.4999 8.1 22.4999H15.9C19.6 22.4999 21.55 20.7399 21.74 17.2399C21.75 17.0499 21.76 16.8499 21.76 16.6499V14.6999C21.76 12.4899 20.29 10.6299 18.29 10.0199ZM13.28 15.9999C13.74 16.1599 14.36 16.4999 14.36 17.5599C14.36 18.4699 13.65 19.1999 12.77 19.1999H12.52V19.4199C12.52 19.7099 12.29 19.9399 12 19.9399C11.71 19.9399 11.48 19.7099 11.48 19.4199V19.1999H11.39C10.43 19.1999 9.64 18.3899 9.64 17.3899C9.64 17.0999 9.87 16.8699 10.16 16.8699C10.45 16.8699 10.68 17.0999 10.68 17.3899C10.68 17.8099 11 18.1599 11.39 18.1599H11.48V16.4699L10.72 16.1999C10.26 16.0399 9.64 15.6999 9.64 14.6399C9.64 13.7299 10.35 12.9999 11.23 12.9999H11.48V12.7799C11.48 12.4899 11.71 12.2599 12 12.2599C12.29 12.2599 12.52 12.4899 12.52 12.7799V12.9999H12.61C13.57 12.9999 14.36 13.8099 14.36 14.8099C14.36 15.0999 14.13 15.3299 13.84 15.3299C13.55 15.3299 13.32 15.0999 13.32 14.8099C13.32 14.3899 13 14.0399 12.61 14.0399H12.52V15.7299L13.28 15.9999Z" fill="#2C4154"/>
<path d="M10.68 14.64C10.68 15.06 10.8 15.12 11.06 15.22L11.48 15.37V14.04H11.23C10.92 14.04 10.68 14.31 10.68 14.64Z" fill="#2C4154"/>
</svg>
